HIERARCHY
ROOT pelvis
{
  OFFSET 0 100 0
  CHANNELS 6 Xposition Yposition Zposition Zrotation Xrotation Yrotation
  JOINT pelvis_right_femur
  {
    OFFSET -10.78128 -3.44521 -0.5502486
    CHANNELS 3 Zrotation Xrotation Yrotation
    JOINT right_femur_tibia
    {
      OFFSET -0.8047443 -44.0398 -0.1307829
      CHANNELS 3 Zrotation Xrotation Yrotation
      JOINT right_tibia_foot
      {
        OFFSET 3.006224 -47.83518 -5
        CHANNELS 3 Zrotation Xrotation Yrotation
        End Site
        {
          OFFSET 0 -5 15
        }
      }
    }
  }
  JOINT pelvis_left_femur
  {
    OFFSET 10.78128 -3.44521 -0.5502486
    CHANNELS 3 Zrotation Xrotation Yrotation
    JOINT left_femur_tibia
    {
      OFFSET 0.8047443 -44.0398 -0.1307829
      CHANNELS 3 Zrotation Xrotation Yrotation
      JOINT left_tibia_foot
      {
        OFFSET -4.370144 -48.10324 -4.275266
        CHANNELS 3 Zrotation Xrotation Yrotation
        End Site
        {
          OFFSET 0 -5 15
        }
      }
    }
  }
  JOINT pelvis_spine1
  {
    OFFSET 0 6.468898 -3.129235
    CHANNELS 3 Zrotation Xrotation Yrotation
    JOINT spine1
    {
      OFFSET 0 23.15396 4.99043
      CHANNELS 3 Zrotation Xrotation Yrotation
      JOINT spine2
      {
        OFFSET 0 20.79997 -5.064912
        CHANNELS 3 Zrotation Xrotation Yrotation
        JOINT neck
        {
          OFFSET 0 14.38658 9.616178
          CHANNELS 3 Zrotation Xrotation Yrotation
          End Site
          {
            OFFSET 0 20 0
          }
        }
      }
      JOINT right_manubrium
      {
        OFFSET -5.722621 16.35077 3.967754
        CHANNELS 3 Zrotation Xrotation Yrotation
        JOINT right_clavicle
        {
          OFFSET -13.16364 1.694482 -4.693211
          CHANNELS 3 Zrotation Xrotation Yrotation
          JOINT right_humerus
          {
            OFFSET -28.5034 -0.3100689 -2.792744
            CHANNELS 3 Zrotation Xrotation Yrotation
            JOINT right_radius
            {
              OFFSET -25.15693 0.02248979 -1.271978
              CHANNELS 3 Zrotation Xrotation Yrotation
              End Site
              {
                OFFSET -15 0 0
              }
            }
          }
        }
      }
      JOINT left_manubrium
      {
        OFFSET 5.722621 16.35077 3.967754
        CHANNELS 3 Zrotation Xrotation Yrotation
        JOINT left_clavicle
        {
          OFFSET 13.16364 1.694482 -4.693211
          CHANNELS 3 Zrotation Xrotation Yrotation
          JOINT left_humerus
          {
            OFFSET 29.39168 -1.063119 -2.237045
            CHANNELS 3 Zrotation Xrotation Yrotation
            JOINT left_radius
            {
              OFFSET 24.59957 -0.9528479 0.9047498
              CHANNELS 3 Zrotation Xrotation Yrotation
              End Site
              {
                OFFSET 15 -0 -0
              }
            }
          }
        }
      }
    }
  }
}
MOTION
Frames: 19
Frame Time: 0.0416666666667
-281.6984 96.0258 3059.634 -1.180517 -7.665114 -7.4177 4.862648 -16.58239 0.7768819 -0 12.4134 -0 -6.616362 0.4687004 -6.858591 -3.651205 15.88794 -7.240452 -0 42.11785 -0 -4.953309 -11.46181 13.80099 1.688314 -4.038336 5.822112 0.5391073 17.2984 -7.5192 1.503205 20.58903 3.208388 0.7068546 -21.07023 5.581793 -3.777065 -27.00754 12.92708 95.22284 14.31047 -18.93852 -0 0 16.84626 -24.92218 15.03635 13.3569 3.35885 -26.40612 -9.123341 -89.76597 12.77198 25.84742 0 0 -20.57474 9.426207 16.34577 2.101089
-283.1813 96.98793 3066.376 -1.368946 -8.636136 -8.028319 5.531454 -12.36281 1.702082 -0 14.48532 -0 -6.972972 0.2587975 -6.761205 -3.36877 12.41139 -7.036241 -0 49.82762 -0 -5.160775 -9.095034 14.78217 1.785693 -4.108437 6.129793 0.498601 17.47161 -7.424325 1.558658 20.27215 2.830609 0.4116859 -20.93512 5.43067 -3.791433 -27.83679 12.90811 94.72403 14.37787 -17.88155 -0 0 18.56607 -24.94948 15.65949 13.83934 3.039567 -25.93474 -9.002305 -90.26662 12.50957 27.47229 0 0 -19.36814 8.779183 16.14065 2.872073
-284.6323 98.24405 3072.783 -1.508529 -9.447035 -8.811658 5.99095 -7.869784 2.635788 -0 16.00794 -0 -6.961319 -0.5996832 -6.486014 -2.939599 7.342105 -6.662296 -0 55.42356 -0 -5.178939 -7.178861 16.01953 1.87144 -4.126027 6.510217 0.4377633 17.5669 -7.239445 1.642547 19.91975 2.358933 0.02219807 -20.7806 5.278312 -3.846826 -28.83136 12.82231 94.03622 14.58101 -16.3655 -0 0 20.7233 -24.87729 16.32051 14.42708 2.627271 -25.20704 -8.756408 -90.90925 12.25787 29.48664 0 0 -17.73997 7.91999 15.792 3.918928
-285.9915 99.496 3078.813 -1.606417 -9.919292 -9.729932 6.228475 -3.366301 3.444636 -0 16.32062 -0 -6.565635 -2.285843 -5.998257 -2.280375 0.9584495 -6.061132 -0 57.80498 -0 -5.070044 -5.912649 17.3062 1.938252 -4.092164 6.957112 0.3589371 17.5641 -6.969087 1.752423 19.54335 1.810367 -0.4521048 -20.6109 5.136615 -3.947742 -29.95023 12.66515 93.16812 14.91369 -14.43116 -0 0 23.24987 -24.6819 16.98679 15.07515 2.138822 -24.25006 -8.37654 -91.65238 12.00301 31.78479 0 0 -15.80158 6.925855 15.30058 5.154986
-287.2126 100.4361 3084.531 -1.662736 -9.951099 -10.7305 6.243909 0.9854138 4.010498 -0 15.20888 -0 -5.824521 -4.831872 -5.306588 -1.339057 -6.157879 -5.213805 -0 56.36613 -0 -4.922406 -5.347944 18.41645 1.977841 -4.010702 7.454669 0.2642651 17.4512 -6.621223 1.882969 19.16523 1.215476 -0.9859323 -20.42978 5.017036 -4.089037 -31.12968 12.44076 92.14041 15.35183 -12.15586 -0 0 26.02776 -24.36137 17.61568 15.73494 1.602729 -23.11154 -7.866545 -92.45635 11.74136 34.22972 0 0 -13.66642 5.887777 14.69274 6.471522
-288.2755 100.8333 3090.093 -1.662848 -9.535733 -11.7481 6.036157 5.111757 4.278649 -0 13.02276 -0 -4.803348 -8.014852 -4.459967 -0.1520791 -13.20246 -4.173167 -0 51.24574 -0 -4.824545 -5.383671 19.17889 1.982464 -3.887976 7.974476 0.1561264 17.22975 -6.209272 2.025845 18.81875 0.6186285 -1.536819 -20.2417 4.928647 -4.254216 -32.2839 12.16498 90.9948 15.85268 -9.663362 -0 0 28.8815 -23.94372 18.15619 16.36101 1.058747 -21.86188 -7.250334 -93.28575 11.48501 36.65839 0 0 -11.44283 4.89567 14.02312 7.753294
-289.1911 100.5991 3095.696 -1.583417 -8.762576 -12.71348 5.601799 8.974383 4.286114 -0 10.63379 -0 -3.585316 -11.30651 -3.53539 1.101748 -19.32153 -3.104542 -0 43.40605 -0 -4.830613 -5.80543 19.53542 1.947276 -3.732856 8.476094 0.03795116 16.91841 -5.754261 2.170322 18.54362 0.07342663 -2.049332 -20.05279 4.876216 -4.416412 -33.31381 11.86599 89.79924 16.36059 -7.125063 -0 0 31.58832 -23.48671 18.55642 16.91713 0.5545597 -20.59126 -6.574834 -94.10969 11.26148 38.89615 0 0 -9.231873 4.023675 13.36819 8.89614
-289.9968 99.81257 3101.529 -1.411431 -7.801494 -13.56558 4.95028 12.50083 4.142015 -0 9.201462 -0 -2.293728 -13.9435 -2.6275 2.101535 -23.82366 -2.286623 -0 34.45196 -0 -4.927578 -6.359361 19.55602 1.872559 -3.556579 8.912207 -0.0849176 16.55205 -5.285625 2.304588 18.37698 -0.3663709 -2.465172 -19.87164 4.859345 -4.543457 -34.12306 11.58063 88.64496 16.8192 -4.746368 -0 0 33.9082 -23.06597 18.77494 17.37919 0.1392156 -19.40033 -5.905521 -94.89933 11.10753 40.77836 0 0 -7.13015 3.32071 12.81041 9.821619
-290.7408 98.69683 3107.724 -1.16421 -6.870483 -14.25917 4.126026 15.53435 3.965902 -0 9.805383 -0 -1.115911 -15.14562 -1.845595 2.496661 -26.33648 -2.014057 -0 26.19846 -0 -5.031536 -6.838102 19.39693 1.764662 -3.371731 9.237321 -0.2049377 16.17517 -4.839071 2.417384 18.34346 -0.6575457 -2.736204 -19.70956 4.873375 -4.606761 -34.63652 11.34592 87.63362 17.18579 -2.737111 -0 0 35.62625 -22.75401 18.7911 17.73349 -0.1455747 -18.3858 -5.314241 -95.62412 11.0592 42.17346 0 0 -5.233884 2.809246 12.41834 10.48459
-291.4655 97.55511 3114.334 -0.8945936 -6.188597 -14.7632 3.218414 17.82998 3.824595 -0 13.0777 -0 -0.2741182 -14.42269 -1.299006 2.097582 -26.83555 -2.431322 -0 20.12431 -0 -5.030667 -7.147072 19.21873 1.634975 -3.190416 9.417194 -0.3131043 15.83149 -4.4513 2.499555 18.44868 -0.7755376 -2.835234 -19.58033 4.91185 -4.590898 -34.81403 11.18901 86.85867 17.44049 -1.274089 -0 0 36.59224 -22.59872 18.60885 17.97229 -0.2736097 -17.62518 -4.86336 -96.24941 11.14198 42.9997 0 0 -3.639855 2.491249 12.23031 10.87239
-292.196 96.68821 3121.317 -0.6734569 -5.922782 -15.05407 2.344133 19.10058 3.711859 -0 18.98499 -0 0.06952336 -11.81987 -1.059571 0.9888494 -25.55529 -3.44401 -0 16.93996 -0 -4.853289 -7.323863 19.10888 1.497335 -3.022412 9.435439 -0.4004874 15.55397 -4.153486 2.545219 18.67883 -0.7170906 -2.760254 -19.49884 4.969252 -4.499171 -34.65464 11.12022 86.38853 17.58618 -0.4701838 -0 0 36.74274 -22.61143 18.25256 18.08979 -0.238734 -17.1663 -4.592783 -96.73738 11.36433 43.23 0 0 -2.441025 2.357136 12.24827 10.99744
-292.9343 96.31799 3128.537 -0.5569508 -6.143834 -15.11221 1.605021 19.09048 3.581077 -0 26.83443 -0 -0.09887016 -7.949261 -1.141294 -0.5358205 -22.85797 -4.793772 -0 16.45891 -0 -4.511303 -7.506804 19.05403 1.36501 -2.874315 9.295049 -0.4597791 15.35926 -3.966409 2.552303 19.0058 -0.4974996 -2.5314 -19.47838 5.042586 -4.352205 -34.19093 11.13278 86.25776 17.64018 -0.3618996 -0 0 36.1004 -22.76857 17.75838 18.08064 -0.05413471 -17.02462 -4.514786 -97.05051 11.7162 42.88422 0 0 -1.718714 2.393474 12.44306 10.88688
-293.6624 96.53521 3135.788 -0.5575062 -6.806383 -14.92501 1.048046 17.64493 3.395864 -0 35.46484 -0 -0.6403596 -3.77416 -1.527981 -2.133018 -19.12972 -6.205464 -0 17.79756 -0 -4.087996 -7.873318 18.97161 1.248409 -2.75002 9.015114 -0.4861542 15.24784 -3.899019 2.522394 19.39469 -0.1448793 -2.183344 -19.52729 5.131139 -4.18062 -33.47747 11.20822 86.4673 17.62345 -0.9166964 -0 0 34.75563 -23.02371 17.16629 17.94112 0.2527007 -17.18784 -4.617158 -97.15581 12.17168 42.01412 0 0 -1.534618 2.587271 12.76716 10.57272
-294.3533 97.28153 3142.838 -0.6362874 -7.75886 -14.49216 0.65804 14.7547 3.152135 -0 43.51821 -0 -1.333514 -0.2575864 -2.204206 -3.532165 -14.73026 -7.479858 -0 19.76506 -0 -3.684601 -8.575555 18.76964 1.154094 -2.652118 8.625094 -0.4773732 15.20846 -3.950021 2.460016 19.81041 0.3058042 -1.756874 -19.64615 5.234886 -4.015751 -32.57888 11.32411 86.98998 17.55232 -2.052004 -0 0 32.84212 -23.3228 16.51577 17.67146 0.646793 -17.62423 -4.871221 -97.0289 12.69341 40.68867 0 0 -1.924378 2.927082 13.16875 10.08509
-294.9874 98.36893 3149.497 -0.7215009 -8.778909 -13.8298 0.3860219 10.56971 2.860573 -0 49.70638 -0 -1.968491 1.954498 -3.138598 -4.57991 -9.985565 -8.505515 -0 21.2604 -0 -3.365654 -9.692952 18.39542 1.084976 -2.583364 8.159335 -0.4335626 15.22425 -4.110652 2.371636 20.22176 0.8174175 -1.292227 -19.82677 5.352548 -3.882209 -31.56135 11.46045 87.77741 17.43517 -3.65563 -0 0 30.51556 -23.617 15.84478 17.27824 1.091832 -18.29074 -5.24049 -96.65815 13.2367 38.98541 0 0 -2.892269 3.402163 13.60241 9.44913
-295.5659 99.53264 3155.667 -0.7425349 -9.624799 -12.97373 0.186368 5.383752 2.518642 -0 53.03715 -0 -2.421093 2.690881 -4.239547 -5.232634 -5.193047 -9.231537 -0 21.55613 -0 -3.134894 -11.21071 17.85382 1.041256 -2.547519 7.653251 -0.3571184 15.27854 -4.367032 2.264659 20.60302 1.353893 -0.8248265 -20.05325 5.480232 -3.793921 -30.48835 11.60315 88.76598 17.27323 -5.601416 -0 0 27.93929 -23.87066 15.18997 16.77615 1.554533 -19.13891 -5.687336 -96.04931 13.753 36.98942 0 0 -4.406203 4.000701 14.03465 8.685422
-296.1132 100.5021 3161.369 -0.6626859 -10.09253 -11.98159 0.03776235 -0.4042196 2.103277 -0 52.98721 -0 -2.672912 2.221594 -5.34541 -5.527787 -0.6131173 -9.641278 -0 20.42901 -0 -2.949937 -13.02355 17.19697 1.021593 -2.549253 7.141128 -0.2528183 15.35903 -4.701469 2.146598 20.93413 1.882464 -0.3830003 -20.30471 5.611109 -3.753472 -29.41931 11.74488 89.88215 17.064 -7.759217 -0 0 25.27543 -24.06476 14.58646 16.18872 2.007154 -20.11795 -6.17701 -95.23 14.19377 34.79697 0 0 -6.393559 4.707595 14.44466 7.81289
-296.668 101.0664 3166.728 -0.4946794 -10.06665 -10.93024 -0.05465306 -6.342102 1.589307 -0 49.60055 -0 -2.778142 1.080346 -6.274029 -5.549712 3.556684 -9.742798 -0 18.1483 -0 -2.763122 -14.95696 16.49641 1.024095 -2.59311 6.654679 -0.1278824 15.45979 -5.09305 2.024475 21.2004 2.375261 0.01291052 -20.55874 5.7361 -3.753807 -28.40912 11.88389 91.0478 16.80541 -10.00114 -0 0 22.67832 -24.19683 14.06656 15.54802 2.428509 -21.17606 -6.67958 -94.25191 14.51603 32.51929 0 0 -8.739908 5.501927 14.82218 6.853245
-297.27 101.1147 3171.928 -0.2923685 -9.551202 -9.904698 -0.06500194 -11.97736 0.9779898 -0 43.4836 -0 -2.818336 -0.1653701 -6.89535 -5.397006 7.207679 -9.572809 -0 15.35775 -0 -2.564314 -16.7955 15.81151 1.046931 -2.681878 6.22158 0.008371088 15.58108 -5.5182 1.904493 21.39244 2.810293 0.3503641 -20.79454 5.845226 -3.781338 -27.50713 12.02192 92.18618 16.49928 -12.20624 -0 0 20.28796 -24.27805 13.65775 14.89282 2.803788 -22.26101 -7.170545 -93.18847 14.6895 30.28205 0 0 -11.29317 6.354365 15.16401 5.835861
